<?xml version="1.0" standalone="no"?>
<!DOCTYPE svg PUBLIC "-//W3C//DTD SVG 20010904//EN"
 "http://www.w3.org/TR/2001/REC-SVG-20010904/DTD/svg10.dtd">
<svg version="1.0" xmlns="http://www.w3.org/2000/svg"
 width="856.000000pt" height="856.000000pt" viewBox="0 0 856.000000 856.000000"
 preserveAspectRatio="xMidYMid meet">
<metadata>
Created by potrace 1.11, written by Peter Selinger 2001-2013
</metadata>
<g transform="translate(0.000000,856.000000) scale(0.100000,-0.100000)"
fill="#000000" stroke="none">
<path d="M5598 8524 c-2 -1 -26 -6 -53 -10 -151 -20 -351 -104 -482 -203 -315
-239 -509 -584 -539 -963 -9 -114 -9 -3472 0 -3578 27 -316 160 -601 387 -828
176 -176 365 -282 589 -329 68 -14 132 -18 325 -18 247 0 307 5 409 31 196 51
361 149 526 314 196 195 310 404 372 682 20 88 21 129 25 794 l4 701 -685 0
-686 0 -1 -56 c0 -72 0 -740 0 -766 1 -20 7 -20 279 -20 l277 0 -1 -110 c-3
-343 -39 -502 -139 -613 -163 -181 -527 -181 -702 0 -49 51 -105 152 -128 229
-44 157 -44 134 -41 1839 2 1181 5 1627 14 1660 6 25 13 54 16 65 23 101 73
199 134 266 86 93 184 130 337 125 114 -3 180 -24 258 -81 126 -93 211 -290
232 -535 4 -41 9 -86 11 -100 3 -14 7 -182 9 -375 l4 -350 406 -3 407 -2 -5
552 c-4 451 -7 567 -20 628 -9 41 -19 87 -22 102 -21 104 -108 292 -193 418
-54 79 -270 310 -291 310 -5 0 -16 6 -23 13 -41 38 -154 102 -251 140 -145 58
-229 70 -504 72 -139 2 -254 1 -255 -1z"/>
<path d="M2345 8408 c-2 -7 -6 -31 -9 -53 -5 -43 -23 -156 -30 -191 -5 -24 -5
-22 -52 -319 -19 -121 -37 -233 -40 -250 -3 -16 -7 -41 -9 -55 -10 -69 -18
-117 -21 -135 -3 -11 -20 -119 -40 -240 -19 -121 -37 -227 -39 -235 -2 -8 -6
-37 -10 -64 -3 -27 -8 -52 -10 -55 -1 -3 -6 -35 -10 -71 -4 -36 -8 -67 -10
-70 -2 -3 -6 -26 -10 -50 -3 -25 -13 -85 -21 -135 -8 -49 -17 -101 -19 -115
-2 -14 -11 -65 -19 -115 -8 -49 -18 -108 -21 -130 -4 -22 -8 -51 -11 -65 -2
-14 -6 -38 -8 -55 -4 -27 -21 -131 -31 -195 -2 -14 -11 -65 -19 -115 -9 -49
-18 -108 -21 -130 -4 -22 -13 -78 -21 -125 -8 -47 -21 -128 -29 -180 -8 -52
-17 -106 -19 -120 -8 -46 -65 -395 -71 -435 -3 -23 -7 -52 -10 -65 -3 -14 -7
-36 -9 -50 -3 -14 -8 -43 -11 -65 -7 -52 -25 -163 -30 -195 -4 -21 -34 -203
-51 -305 -2 -16 -6 -41 -9 -55 -2 -14 -7 -43 -10 -65 -3 -23 -7 -50 -9 -60 -2
-11 -7 -40 -11 -65 -4 -25 -9 -54 -11 -65 -2 -11 -7 -40 -10 -65 -3 -25 -8
-54 -10 -65 -3 -17 -17 -99 -39 -235 -2 -14 -11 -68 -20 -120 -9 -52 -19 -115
-21 -140 -3 -25 -9 -61 -14 -80 -5 -19 -12 -59 -15 -89 -4 -30 -8 -62 -10 -72
-2 -9 -7 -39 -11 -66 -4 -26 -10 -58 -15 -70 -5 -14 -4 -25 3 -29 6 -4 195 -7
421 -7 329 0 410 2 417 13 7 12 16 54 26 133 8 64 15 113 19 127 2 8 7 38 10
65 4 28 8 59 10 70 2 11 9 56 15 100 7 44 13 82 15 85 2 3 6 34 10 70 4 36 9
68 11 71 2 3 6 24 8 45 3 21 8 59 11 84 3 25 14 97 25 160 20 121 25 154 35
235 l7 50 303 0 c167 0 306 -2 309 -5 2 -3 8 -28 11 -55 4 -28 13 -90 21 -140
7 -49 16 -108 19 -130 3 -22 8 -51 10 -65 8 -45 15 -86 19 -121 5 -42 35 -245
41 -279 2 -14 14 -88 25 -165 11 -77 23 -153 25 -168 2 -15 7 -47 10 -70 11
-74 16 -101 20 -106 4 -3 789 -5 831 -2 8 1 9 16 3 49 -4 26 -15 94 -24 152
-9 58 -18 116 -20 130 -3 14 -7 43 -10 65 -3 22 -10 65 -15 95 -9 54 -20 125
-25 165 -2 11 -8 47 -13 80 -13 74 -22 130 -28 175 -2 19 -6 46 -9 60 -3 14
-7 39 -9 55 -16 96 -26 165 -31 200 -4 22 -15 92 -25 155 -10 63 -22 135 -25
160 -3 25 -11 72 -16 105 -6 33 -12 71 -14 85 -2 14 -11 70 -19 125 -8 55 -18
118 -21 140 -3 22 -8 47 -10 55 -3 8 -7 35 -10 60 -3 25 -8 57 -10 73 -3 15
-7 39 -10 55 -2 15 -14 88 -25 162 -11 74 -23 146 -25 160 -2 14 -7 43 -10 65
-3 22 -10 65 -15 95 -5 30 -12 73 -15 95 -4 22 -8 51 -10 65 -6 37 -44 277
-100 635 -20 127 -38 244 -41 260 -2 17 -6 41 -9 55 -2 14 -7 45 -10 70 -8 59
-11 77 -30 190 -9 52 -19 111 -21 130 -2 19 -13 89 -24 155 -11 66 -22 136
-24 155 -3 19 -14 91 -25 160 -11 69 -23 143 -26 165 -3 22 -8 51 -10 65 -3
14 -7 41 -10 60 -3 19 -9 63 -15 98 -5 34 -15 90 -20 125 -6 34 -12 76 -15 92
-2 17 -9 59 -14 95 -6 36 -13 83 -16 105 -3 22 -10 63 -15 90 -5 28 -11 71
-15 98 l-6 47 -42 1 c-512 10 -828 9 -832 -3z m442 -2170 c0 -21 13 -131 17
-153 2 -11 7 -51 10 -90 4 -38 9 -77 11 -85 2 -8 6 -42 9 -75 3 -33 8 -69 10
-80 2 -12 7 -51 10 -87 4 -37 9 -77 11 -90 3 -13 7 -47 10 -76 3 -29 7 -67 10
-85 2 -18 12 -95 21 -172 9 -77 18 -148 20 -158 2 -10 6 -45 9 -78 4 -33 8
-69 10 -79 2 -10 -2 -20 -8 -22 -7 -2 -82 -4 -167 -3 l-155 1 2 41 c1 23 14
131 27 240 14 109 28 221 30 248 3 28 8 66 10 85 3 19 8 55 11 80 3 25 7 60
10 79 2 19 7 59 10 90 3 31 7 65 9 76 2 11 7 49 11 85 3 36 8 78 11 94 3 16 7
52 10 80 2 28 6 60 8 71 3 11 5 32 5 48 1 26 17 40 18 15z"/>
<path d="M1711 2409 c-124 -23 -243 -140 -267 -265 -11 -58 -8 -323 5 -370 24
-90 117 -185 219 -224 26 -10 78 -21 116 -25 82 -7 108 -23 137 -82 27 -55 38
-204 20 -270 -14 -52 -52 -92 -89 -95 -15 -1 -36 -2 -47 -3 -77 -6 -133 74
-137 196 l-1 36 -108 1 c-126 1 -126 1 -123 -89 4 -114 42 -199 120 -268 67
-58 135 -81 247 -82 113 0 180 19 244 69 107 85 134 155 135 347 1 156 -4 192
-33 250 -55 113 -172 187 -314 200 -80 7 -89 11 -116 47 -38 48 -49 102 -46
223 2 88 6 116 22 142 40 67 137 82 199 31 35 -29 52 -79 59 -168 l2 -35 108
0 c61 -1 111 4 115 9 7 12 5 131 -4 171 -19 89 -104 189 -194 229 -65 29 -184
40 -269 25z"/>
<path d="M6665 2410 c-126 -18 -244 -133 -273 -266 -4 -22 -7 -255 -7 -519 l2
-480 26 -56 c67 -144 187 -209 372 -203 140 4 256 79 313 202 l27 57 0 505 0
505 -27 57 c-36 76 -114 151 -186 178 -58 22 -171 31 -247 20z m158 -209 c14
-5 35 -25 48 -43 l24 -33 1 -440 c2 -469 -1 -502 -47 -551 -45 -48 -142 -43
-190 8 -15 18 -32 50 -36 72 -5 23 -8 228 -8 456 2 371 4 419 19 457 28 66
118 101 189 74z"/>
<path d="M3542 1768 l3 -633 28 -55 c71 -139 184 -199 364 -194 128 3 220 53
292 159 53 78 54 88 53 733 0 329 -1 603 -1 610 -1 9 -31 12 -115 12 l-114 0
0 -575 c0 -316 -4 -590 -7 -608 -12 -55 -35 -88 -70 -103 -73 -30 -147 -6
-182 58 -17 31 -18 77 -21 631 l-3 597 -115 0 -115 0 3 -632z"/>
<path d="M4788 2392 l-137 -3 1 -739 c0 -551 3 -740 11 -741 30 -2 390 -1 454
2 95 3 163 36 214 103 65 86 66 95 65 636 -1 470 -2 486 -22 530 -43 91 -117
162 -204 193 -49 18 -162 24 -382 19z m329 -230 c20 -14 34 -36 41 -63 7 -26
10 -198 9 -473 -2 -415 -3 -432 -23 -466 -32 -55 -67 -65 -210 -61 l-51 1 0
546 0 546 102 -4 c84 -4 108 -8 132 -26z"/>
<path d="M2509 2337 c-1 -68 2 -131 7 -136 2 -2 52 -4 111 -5 l108 -1 1 -638
c1 -351 4 -641 8 -644 3 -3 36 -6 73 -5 38 0 89 1 114 1 l46 1 1 613 c0 336 1
626 1 644 l1 31 106 -1 c61 -1 109 2 112 8 4 6 7 47 7 93 0 65 -3 83 -15 87
-8 2 -165 4 -347 4 l-333 0 -1 -52z"/>
<path d="M5770 1650 l0 -740 33 -1 c37 -1 152 -1 185 0 l22 1 0 738 0 737
-120 2 -120 3 0 -740z"/>
<path d="M2305 640 c-204 -46 -298 -316 -175 -502 57 -87 137 -128 244 -128
144 0 251 108 259 261 l2 44 -113 0 -113 0 3 -30 3 -30 77 -1 c43 0 80 -3 84
-7 15 -15 -48 -118 -88 -145 -57 -37 -149 -43 -212 -12 -205 99 -185 414 30
487 62 21 180 -13 228 -66 24 -27 42 -27 57 0 10 19 7 25 -22 51 -71 63 -184
96 -264 78z"/>
<path d="M3203 638 c-47 -12 -84 -66 -88 -127 -5 -61 27 -116 105 -181 113
-94 140 -172 81 -231 -22 -21 -39 -29 -65 -29 -37 0 -54 12 -92 64 -18 25 -23
27 -42 17 -21 -11 -21 -13 -6 -43 35 -67 98 -107 158 -100 54 6 112 61 125
119 22 95 -4 144 -155 280 -59 53 -72 116 -32 153 34 31 74 26 116 -16 35 -35
35 -35 55 -16 19 20 19 20 -2 49 -41 54 -99 77 -158 61z"/>
<path d="M5561 630 c-75 -25 -121 -67 -161 -145 -33 -63 -35 -74 -35 -159 0
-77 4 -99 27 -146 54 -114 141 -173 250 -172 179 3 303 189 264 396 -32 171
-195 277 -345 226z m169 -70 c172 -88 169 -392 -5 -471 -90 -41 -192 -14 -254
67 -32 43 -63 136 -57 172 2 9 6 37 10 62 7 51 47 117 89 151 61 47 146 55
217 19z"/>
<path d="M1661 584 c-12 -25 -21 -48 -21 -50 0 -2 -44 -111 -98 -242 -55 -130
-101 -244 -105 -253 -4 -12 2 -16 23 -17 27 -1 31 5 67 96 l39 97 119 0 119 0
38 -96 c36 -89 41 -96 66 -95 15 1 26 6 25 11 -1 6 -51 132 -112 281 -61 149
-111 276 -111 281 0 6 -6 16 -14 22 -12 10 -18 4 -35 -35z m72 -197 l45 -107
-89 0 c-49 0 -89 3 -89 6 0 11 84 214 87 211 1 -2 22 -51 46 -110z"/>
<path d="M3520 600 c0 -30 0 -30 58 -30 l59 0 1 -252 c0 -139 1 -263 1 -275 1
-18 6 -22 26 -21 l25 2 0 273 0 273 58 0 c59 0 59 0 60 30 l1 30 -145 0 -144
0 0 -30z"/>
<path d="M3964 388 c3 -258 6 -281 53 -330 88 -92 249 -48 282 77 6 22 11 132
12 245 1 272 3 250 -26 250 l-25 0 -1 -222 c-1 -251 -1 -252 -27 -287 -40 -54
-107 -66 -163 -28 -49 33 -55 70 -54 320 l0 217 -26 0 -27 0 2 -242z"/>
<path d="M4520 326 l0 -306 128 4 c150 4 195 18 247 79 80 93 95 273 32 392
-8 17 -30 44 -49 61 -60 57 -91 67 -230 72 l-128 5 0 -307z m240 229 c19 -5
48 -19 63 -29 90 -61 117 -251 49 -355 -40 -62 -93 -84 -206 -85 l-91 -1 -2
243 -2 243 77 -2 c42 -2 93 -8 112 -14z"/>
<path d="M5135 328 l0 -303 27 -2 26 -2 1 305 0 304 -27 0 -27 0 0 -302z"/>
<path d="M6375 328 l0 -303 26 -3 26 -3 0 123 c1 68 2 132 2 144 1 19 7 21 48
19 126 -4 195 29 217 105 23 78 2 149 -57 194 -24 18 -45 22 -145 24 l-117 4
0 -304z m226 232 c23 -13 49 -61 49 -90 0 -43 -30 -88 -63 -96 -45 -10 -133
-12 -147 -4 -10 6 -16 119 -11 188 1 15 143 17 172 2z"/>
<path d="M6886 338 c1 -161 2 -298 3 -304 1 -8 41 -12 126 -12 l125 0 0 29 c0
32 5 31 -122 31 -73 0 -78 1 -79 22 0 11 -1 135 -1 274 l0 252 -27 0 -26 0 1
-292z"/>
<path d="M2770 250 l0 -25 100 0 100 -1 0 26 0 25 -100 0 -100 1 0 -26z"/>
<path d="M6117 102 c-38 -42 -4 -107 42 -83 26 14 33 38 19 64 -20 40 -38 45
-61 19z"/>
</g>
</svg>
